HIERARCHY
ROOT Hips
{
	OFFSET -278.121490 93.318451 465.951996
	CHANNELS 6 Xposition Yposition Zposition Zrotation Yrotation Xrotation 
	JOINT LeftUpLeg
	{
		OFFSET 0.103457 1.857822 10.548516
		CHANNELS 3 Zrotation Yrotation Xrotation
		JOINT LeftLeg
		{
			OFFSET 43.500008 -0.000031 0.000015
			CHANNELS 3 Zrotation Yrotation Xrotation
			JOINT LeftFoot
			{
				OFFSET 42.372192 0.000027 -0.000009
				CHANNELS 3 Zrotation Yrotation Xrotation
				JOINT LeftToe
				{
					OFFSET 17.299999 0.000000 -0.000004
					CHANNELS 3 Zrotation Yrotation Xrotation
					End Site
					{
						OFFSET 0.000000 0.000000 0.000000
					}
				}
			}
		}
	}
	JOINT RightUpLeg
	{
		OFFSET 0.103460 1.857822 -10.548513
		CHANNELS 3 Zrotation Yrotation Xrotation
		JOINT RightLeg
		{
			OFFSET 43.500038 -0.000015 -0.000002
			CHANNELS 3 Zrotation Yrotation Xrotation
			JOINT RightFoot
			{
				OFFSET 42.372269 -0.000019 0.000014
				CHANNELS 3 Zrotation Yrotation Xrotation
				JOINT RightToe
				{
					OFFSET 17.300005 -0.000001 0.000011
					CHANNELS 3 Zrotation Yrotation Xrotation
					End Site
					{
						OFFSET 0.000000 0.000000 0.000000
					}
				}
			}
		}
	}
	JOINT Spine
	{
		OFFSET 6.901966 -2.603743 -0.000003
		CHANNELS 3 Zrotation Yrotation Xrotation
		JOINT Spine1
		{
			OFFSET 12.588103 0.000012 0.000008
			CHANNELS 3 Zrotation Yrotation Xrotation
			JOINT Spine2
			{
				OFFSET 12.343199 0.000004 0.000007
				CHANNELS 3 Zrotation Yrotation Xrotation
				JOINT Neck
				{
					OFFSET 25.832901 -0.000008 -0.000001
					CHANNELS 3 Zrotation Yrotation Xrotation
					JOINT Head
					{
						OFFSET 11.766611 0.000029 -0.000004
						CHANNELS 3 Zrotation Yrotation Xrotation
						End Site
						{
							OFFSET 0.000000 0.000000 0.000000
						}
					}
				}
				JOINT LeftShoulder
				{
					OFFSET 19.745907 -1.480370 6.000077
					CHANNELS 3 Zrotation Yrotation Xrotation
					JOINT LeftArm
					{
						OFFSET 11.284128 -0.000004 -0.000015
						CHANNELS 3 Zrotation Yrotation Xrotation
						JOINT LeftForeArm
						{
							OFFSET 33.000065 0.000010 0.000016
							CHANNELS 3 Zrotation Yrotation Xrotation
							JOINT LeftHand
							{
								OFFSET 25.200001 0.000010 0.000006
								CHANNELS 3 Zrotation Yrotation Xrotation
								End Site
								{
									OFFSET 0.000000 0.000000 0.000000
								}
							}
						}
					}
				}
				JOINT RightShoulder
				{
					OFFSET 19.746094 -1.480385 -6.000086
					CHANNELS 3 Zrotation Yrotation Xrotation
					JOINT RightArm
					{
						OFFSET 11.284142 -0.000011 -0.000013
						CHANNELS 3 Zrotation Yrotation Xrotation
						JOINT RightForeArm
						{
							OFFSET 33.000092 0.000004 0.000015
							CHANNELS 3 Zrotation Yrotation Xrotation
							JOINT RightHand
							{
								OFFSET 25.199759 0.000141 0.000412
								CHANNELS 3 Zrotation Yrotation Xrotation
								End Site
								{
									OFFSET 0.000000 0.000000 0.000000
								}
							}
						}
					}
				}
			}
		}
	}
}
MOTION
Frames: 8
Frame Time: 0.033333
-235.272598 78.491890 554.800720 60.404451 -3.677274 177.906006 106.067633 -20.177900 176.550596 -54.285087 -2.122842 9.477491 84.297963 -9.430037 -13.138978 21.454553 0.003092 -0.000000 103.923828 19.267398 179.180669 -59.771252 -2.046238 -3.264453 86.745124 5.213756 14.592009 21.454557 -0.003107 -0.000017 20.051246 -0.730034 -0.346535 30.096914 -1.345410 -0.870304 29.778764 -1.350510 -0.862139 39.831177 3.555785 -0.263954 -24.699538 -7.693371 2.387366 75.548217 -75.005114 103.888974 -56.468206 37.839931 -42.068675 -105.741321 -1.745846 3.129003 -2.120018 -1.444781 58.731403 88.553526 73.338214 -91.236110 -51.368644 -40.216786 41.140599 -107.408092 0.863078 -3.184139 13.679663 -1.026580 -59.067879 
-235.332596 78.431557 554.783630 60.473067 -3.715808 177.910035 106.040312 -20.113606 176.594281 -54.384439 -2.095123 9.438013 84.339367 -9.409689 -13.194092 21.454557 0.003092 0.000001 103.863196 19.304901 179.130344 -59.874538 -2.065188 -3.272431 86.787792 5.227987 14.664080 21.454553 -0.003107 -0.000017 20.040996 -0.731581 -0.356293 30.076472 -1.347631 -0.888438 29.758321 -1.352774 -0.880332 39.631981 3.626410 -0.123398 -24.939058 -7.704825 2.558875 75.539741 -75.028112 103.895503 -56.480931 37.832510 -42.015984 -105.623200 -1.779882 3.129583 -2.673952 -1.828239 58.555478 88.327733 73.345303 -91.459908 -51.492294 -40.239489 41.254944 -107.342297 0.872354 -3.183052 13.394738 -0.676183 -59.114194 
-235.398102 78.383987 554.777588 60.486919 -3.734802 177.874997 105.968773 -20.120605 176.627900 -54.461398 -2.076848 9.415277 84.380874 -9.405211 -13.268858 21.454553 0.003092 -0.000001 103.775838 19.281602 179.098133 -59.932875 -2.083128 -3.266649 86.816076 5.235034 14.739891 21.454558 -0.003110 -0.000017 20.030081 -0.732838 -0.357360 30.054676 -1.348832 -0.891063 29.736519 -1.354040 -0.882927 39.471786 3.691164 0.025091 -25.201501 -7.674306 2.722210 75.423498 -75.049600 104.008154 -56.469897 37.861118 -41.940814 -105.578202 -1.789880 3.130423 -3.203141 -2.117190 58.643833 88.038119 73.330618 -91.747527 -51.593149 -40.330744 41.428000 -107.357207 0.861808 -3.182925 13.355994 -0.357959 -59.352582 
-235.468307 78.350090 554.777771 60.469044 -3.764385 177.840941 105.896462 -20.146300 176.646382 -54.490788 -2.079247 9.393578 84.442571 -9.420899 -13.447882 21.454557 0.003092 0.000001 103.668044 19.261507 179.074173 -59.963453 -2.100992 -3.258454 86.838499 5.241643 14.817769 21.454555 -0.003109 -0.000018 20.020814 -0.733464 -0.358627 30.036225 -1.349306 -0.894639 29.718054 -1.354553 -0.886450 39.364648 3.812110 0.137479 -25.479415 -7.792718 2.900905 75.305691 -75.022613 104.126138 -56.433806 37.908885 -41.855543 -105.561304 -1.806027 3.131334 -3.617009 -2.321198 58.860364 87.915156 73.303899 -91.871215 -51.622628 -40.420701 41.586904 -107.477002 0.831140 -3.184133 13.405644 0.051658 -59.738098 
-235.539597 78.328049 554.786621 60.426977 -3.780625 177.817992 105.815128 -20.189501 176.703523 -54.484655 -2.119735 9.366071 84.537074 -9.451041 -13.738302 21.454553 0.003092 0.000000 103.561227 19.251298 179.100483 -59.970727 -2.125667 -3.254698 86.863375 5.251437 14.896573 21.454560 -0.003112 -0.000017 20.012034 -0.732716 -0.356689 30.018657 -1.348421 -0.890541 29.700504 -1.353643 -0.882358 39.248425 3.939873 0.233717 -25.700877 -7.910220 3.056546 75.183512 -74.998107 104.248194 -56.426686 37.954863 -41.741253 -105.556797 -1.832810 3.132094 -4.027129 -2.560450 58.899078 87.853732 73.334990 -91.928964 -51.660774 -40.514790 41.734385 -107.648112 0.793986 -3.189046 13.299317 0.477969 -60.309792 
-235.601501 78.311638 554.799622 60.362787 -3.761839 177.784059 105.705271 -20.270004 176.748739 -54.487042 -2.133501 9.356763 84.671683 -9.501535 -14.087554 21.454557 0.003092 0.000002 103.465311 19.238205 179.195586 -59.959492 -2.147804 -3.257572 86.894015 5.265489 14.977410 21.454560 -0.003108 -0.000018 19.999627 -0.722523 -0.344641 29.993546 -1.331605 -0.864085 29.675400 -1.336668 -0.856005 39.210169 4.014687 0.284490 -26.032866 -7.938223 3.138151 75.173096 -74.951887 104.262039 -56.418954 38.015552 -41.658488 -105.566502 -1.851898 3.132503 -4.382894 -2.773780 58.761388 87.815879 73.356211 -91.964515 -51.597571 -40.612165 41.820733 -107.866486 0.743686 -3.195114 13.070760 0.710515 -60.621699 
-235.650208 78.303711 554.815186 60.304587 -3.722336 177.744021 105.608672 -20.370607 176.775281 -54.486109 -2.127155 9.361313 84.817590 -9.561998 -14.445391 21.454558 0.003092 0.000001 103.404583 19.238493 179.351465 -59.932314 -2.164071 -3.280988 86.936738 5.290154 15.048280 21.454555 -0.003106 -0.000018 19.990970 -0.708858 -0.333546 29.975901 -1.307681 -0.838649 29.657747 -1.312590 -0.830713 39.084477 4.077776 0.348638 -26.207784 -7.937222 3.214626 75.156232 -74.897225 104.282918 -56.367687 38.068964 -41.598738 -105.581597 -1.862168 3.132347 -4.717674 -2.968574 58.481364 87.707169 73.326295 -92.074502 -51.482780 -40.697730 41.856991 -108.096288 0.689519 -3.201404 12.889734 0.845574 -60.887011 
-235.679901 78.310944 554.833984 60.288434 -3.668589 177.703982 105.581173 -20.474901 176.759258 -54.458987 -2.093282 9.382956 84.947104 -9.627496 -14.759421 21.454553 0.003092 -0.000001 103.424773 19.258104 179.527930 -59.883820 -2.156606 -3.320181 87.024157 5.329609 15.174650 21.454558 -0.003109 -0.000017 19.988132 -0.695459 -0.313157 29.969856 -1.286623 -0.795072 29.651689 -1.291268 -0.787264 38.983312 4.230992 0.442860 -26.340181 -7.939246 3.302968 75.187446 -74.669732 104.270064 -56.144578 38.103511 -41.516813 -105.613706 -1.870817 3.131425 -4.951915 -3.107018 58.123530 87.534359 73.306897 -92.246766 -51.370625 -40.772514 41.891845 -108.241703 0.645461 -3.204700 12.635516 0.869420 -60.865687 
